# xmcd
#
# Track frame offsets:
#        150
#        17917
#        34282
#        56722
#        77560
#        100647
#        120122
#        135997
#        157947
#        169200
#        185235
#        200820
#        216252
#        232575
#        250787
#        270590
#        289492
#        307025
#
# Disc length: 4303 seconds
#
# Revision: 0
# Processed by: cddbd v1.5.1PL2 Copyright (c) Steve Scherf et al.
# Submitted via: ExactAudioCopy v0.95a5
#
DISCID=f910cd12
DTITLE=Various Artist - MegaHits'80 Best Sellection
DYEAR=1900
DGENRE=Other
TTITLE0=Huey Lewis and The News - The Power Of Love
TTITLE1=J. Geils Band - Centerfold
TTITLE2=Paula Abdul - Forever Your Girl
TTITLE3=Cutting Crew - (I Just)Died In Your Arms
TTITLE4=Steve Miller Band - Abracadabra
TTITLE5=Marty Balin - Hearts
TTITLE6=Roy Orbison - You Got It
TTITLE7=Biobby McFerrin - Don't Worry, Be Happy
TTITLE8=Anne Murray - Daydream Believer
TTITLE9=Limahl - The Never Ending Story
TTITLE10=Blondie - Call Me
TTITLE11=Duran Duran - Hungry Like The Wolf
TTITLE12=Sheena Easton - Modern Girl
TTITLE13=John Waite - Missing You
TTITLE14=Culture Club - Do You Really Want To Hurt Me
TTITLE15=Juice Newton - Angel Of The Morning
TTITLE16=Kenny Rogers - Lady
TTITLE17=Peabo Bryson and Roberta Flack - Tonight , I Celebrate My Love
EXTD=
EXTT0=
EXTT1=
EXTT2=
EXTT3=
EXTT4=
EXTT5=
EXTT6=
EXTT7=
EXTT8=
EXTT9=
EXTT10=
EXTT11=
EXTT12=
EXTT13=
EXTT14=
EXTT15=
EXTT16=
EXTT17=
PLAYORDER=
